<svg id="Instagram_Rounded_Solid_icon-icons.com_61560" xmlns="http://www.w3.org/2000/svg" width="35" height="35" viewBox="0 0 35 35">
  <rect id="長方形_21" data-name="長方形 21" width="2.693" height="2.774" transform="translate(20.941 11.103)" fill="#2568a9"/>
  <path id="パス_265" data-name="パス 265" d="M60.3,67.581a4.469,4.469,0,1,1-8.525-1.867H48.822v7.672a1.264,1.264,0,0,0,1.263,1.263H61.577a1.264,1.264,0,0,0,1.263-1.263V65.714H59.886A4.437,4.437,0,0,1,60.3,67.581Z" transform="translate(-38.331 -50.103)" fill="#2568a9"/>
  <path id="パス_266" data-name="パス 266" d="M65.894,70.239a2.656,2.656,0,0,0,1.889-4.525H64a2.656,2.656,0,0,0,1.89,4.525Z" transform="translate(-48.395 -50.11)" fill="#2568a9"/>
  <path id="パス_267" data-name="パス 267" d="M31.708,14.165a17.5,17.5,0,1,0,17.5,17.5A17.5,17.5,0,0,0,31.708,14.165Zm8.841,23.289a3.085,3.085,0,0,1-3.082,3.082H25.948a3.085,3.085,0,0,1-3.082-3.082V25.881A3.085,3.085,0,0,1,25.948,22.8h11.52a3.085,3.085,0,0,1,3.082,3.082Z" transform="translate(-14.208 -14.165)" fill="#2568a9"/>
</svg>
