<svg id="Twitter_Rounded_Solid_icon-icons.com_61561" xmlns="http://www.w3.org/2000/svg" width="35" height="35" viewBox="0 0 35 35">
  <path id="Twitter_Rounded_Solid_icon-icons.com_61561-2" data-name="Twitter_Rounded_Solid_icon-icons.com_61561" d="M31.707,14.165a17.5,17.5,0,1,0,17.5,17.5A17.5,17.5,0,0,0,31.707,14.165Zm8.543,13.152S40.665,29.38,39.173,33a12.016,12.016,0,0,1-10.28,7.368c-5.091.318-7.833-1.934-7.833-1.934a9.009,9.009,0,0,0,6.413-1.787c-3.549-.465-4.063-3.133-4.063-3.133a4.458,4.458,0,0,0,1.958-.049,4.7,4.7,0,0,1-3.549-4.357,4.584,4.584,0,0,0,2.031.538,4.473,4.473,0,0,1-1.395-5.874c4.43,4.847,9.129,4.577,9.129,4.577l.021.032a4.387,4.387,0,0,1,7.49-4.03l.028-.016a5.7,5.7,0,0,0,2.717-.93,4,4,0,0,1-1.913,2.261l.015.039c.547-.133,2.016-.492,2.412-.61A5.748,5.748,0,0,1,40.249,27.317Z" transform="translate(-14.207 -14.165)" fill="#2568a9"/>
</svg>
