<svg xmlns="http://www.w3.org/2000/svg" width="180.737" height="21.491" viewBox="0 0 180.737 21.491">
  <g id="文字" transform="translate(210.87 -399.41)">
    <g id="グループ_2" data-name="グループ 2" transform="translate(-210.87 399.41)">
      <g id="グループ_1" data-name="グループ 1">
        <path id="パス_79" data-name="パス 79" d="M192.859,435.328H191v2.881h-.65v-2.881H188.5v-.5h4.359v.5Z" transform="translate(-153.764 -416.834)"/>
        <path id="パス_80" data-name="パス 80" d="M202.374,436.413a1.529,1.529,0,0,1-.782,1.341,3.033,3.033,0,0,1-1.7.452,3.121,3.121,0,0,1-1.717-.452,1.529,1.529,0,0,1-.782-1.341,1.581,1.581,0,0,1,.8-1.341,3.429,3.429,0,0,1,3.4,0A1.58,1.58,0,0,1,202.374,436.413Zm-.676,0a1.141,1.141,0,0,0-.574-.965,2.218,2.218,0,0,0-1.235-.315,2.189,2.189,0,0,0-1.311.361,1.089,1.089,0,0,0-.015,1.839,2.206,2.206,0,0,0,1.326.345,2.238,2.238,0,0,0,1.326-.361A1.067,1.067,0,0,0,201.7,436.413Z" transform="translate(-158.137 -416.731)"/>
        <path id="パス_81" data-name="パス 81" d="M220.995,438.209h-.65V435.45h-.015l-2.022,2.2-1.992-2.2H216.3v2.759h-.65V434.83h.8l1.854,2.037,1.87-2.037h.8v3.379Z" transform="translate(-167.12 -416.835)"/>
        <path id="パス_82" data-name="パス 82" d="M232.408,438.209H231.7l-.452-.752h-2.611l-.452.752h-.711l2.053-3.379h.813Zm-1.463-1.255-1-1.646-1,1.646Z" transform="translate(-172.935 -416.835)"/>
        <path id="パス_83" data-name="パス 83" d="M243.032,438.209H242.2l-1.854-1.778-1.179.752v1.026h-.65V434.83h.65v1.748l2.713-1.748h.935l-1.992,1.28Z" transform="translate(-178.371 -416.835)"/>
        <path id="パス_84" data-name="パス 84" d="M252.745,438.209H248.67V434.83h3.922v.5H249.32v.874H251.6v.5H249.32v1h3.424v.513Z" transform="translate(-183.364 -416.835)"/>
        <path id="パス_85" data-name="パス 85" d="M268.708,438.209H268l-.452-.752h-2.611l-.452.752H263.8l2.053-3.379h.813Zm-1.463-1.255-1-1.646-1,1.646Z" transform="translate(-190.807 -416.835)"/>
        <path id="パス_86" data-name="パス 86" d="M284.319,434.82a1.47,1.47,0,0,1,.95.284.938.938,0,0,1,.345.767.9.9,0,0,1-.361.767,1.716,1.716,0,0,1-1.057.269H281.89v1.28h-.65V434.81h3.079Zm-.122,1.58c.5,0,.737-.183.737-.528,0-.376-.254-.559-.782-.559H281.89V436.4Z" transform="translate(-199.386 -416.825)"/>
        <path id="パス_87" data-name="パス 87" d="M295.359,438.209H291.3V434.83h3.907v.5h-3.272v.874h2.276v.5h-2.276v1h3.424Z" transform="translate(-204.335 -416.835)"/>
        <path id="パス_88" data-name="パス 88" d="M305.58,438.209h-.752l-1.057-1.28H301.81v1.28h-.65V434.83h3.064a1.5,1.5,0,0,1,.965.285.933.933,0,0,1,.345.782.908.908,0,0,1-.285.7,1.214,1.214,0,0,1-.721.3Zm-1.433-1.8c.5,0,.737-.183.737-.528,0-.376-.269-.559-.8-.559h-2.261v1.087Z" transform="translate(-209.186 -416.835)"/>
        <path id="パス_89" data-name="パス 89" d="M314.716,435.534a4.316,4.316,0,0,0-1.763-.376,2.741,2.741,0,0,0-.9.122c-.208.076-.315.2-.315.33,0,.152.107.254.33.33a3.59,3.59,0,0,0,.782.107c.544.03.889.061,1.057.076a2.665,2.665,0,0,1,1.072.315.729.729,0,0,1,.346.65.9.9,0,0,1-.544.828,3.357,3.357,0,0,1-1.57.285,4.016,4.016,0,0,1-2.307-.574l.345-.406a4.21,4.21,0,0,0,1.961.483,2.8,2.8,0,0,0,1.057-.168c.244-.107.361-.254.361-.437,0-.213-.152-.361-.467-.422-.168-.031-.6-.076-1.326-.122a3.874,3.874,0,0,1-1.341-.229.681.681,0,0,1-.452-.666.827.827,0,0,1,.513-.752A3.144,3.144,0,0,1,313,434.64a4.1,4.1,0,0,1,2.1.5Z" transform="translate(-213.977 -416.741)"/>
        <path id="パス_90" data-name="パス 90" d="M325.994,436.413a1.529,1.529,0,0,1-.783,1.341,3.033,3.033,0,0,1-1.7.452,3.109,3.109,0,0,1-1.717-.452,1.529,1.529,0,0,1-.783-1.341,1.581,1.581,0,0,1,.8-1.341,3.429,3.429,0,0,1,3.4,0A1.557,1.557,0,0,1,325.994,436.413Zm-.666,0a1.141,1.141,0,0,0-.574-.965,2.218,2.218,0,0,0-1.235-.315,2.189,2.189,0,0,0-1.311.361,1.089,1.089,0,0,0-.015,1.839,2.206,2.206,0,0,0,1.326.345,2.239,2.239,0,0,0,1.326-.361A1.056,1.056,0,0,0,325.328,436.413Z" transform="translate(-218.951 -416.731)"/>
        <path id="パス_91" data-name="パス 91" d="M337.385,438.209h-.8l-2.957-2.774v2.774h-.65V434.83h.8l2.957,2.774V434.83h.65v3.379Z" transform="translate(-224.839 -416.835)"/>
        <path id="パス_92" data-name="パス 92" d="M357.6,435.328H354.33v.874h2.276v.5H354.33v1.509h-.65V434.83h3.907v.5Z" transform="translate(-235.022 -416.835)"/>
        <path id="パス_93" data-name="パス 93" d="M366.754,436.413a1.529,1.529,0,0,1-.782,1.341,3.034,3.034,0,0,1-1.7.452,3.109,3.109,0,0,1-1.717-.452,1.529,1.529,0,0,1-.782-1.341,1.581,1.581,0,0,1,.8-1.341,3.429,3.429,0,0,1,3.4,0A1.558,1.558,0,0,1,366.754,436.413Zm-.666,0a1.141,1.141,0,0,0-.574-.965,2.219,2.219,0,0,0-1.235-.315,2.189,2.189,0,0,0-1.311.361,1.089,1.089,0,0,0-.015,1.839,2.206,2.206,0,0,0,1.326.345,2.239,2.239,0,0,0,1.326-.361A1.055,1.055,0,0,0,366.088,436.413Z" transform="translate(-239.002 -416.731)"/>
        <path id="パス_94" data-name="パス 94" d="M376.586,435.534a4.316,4.316,0,0,0-1.763-.376,2.741,2.741,0,0,0-.9.122c-.208.076-.315.2-.315.33,0,.152.107.254.33.33a3.59,3.59,0,0,0,.782.107c.544.03.889.061,1.057.076a2.666,2.666,0,0,1,1.072.315.729.729,0,0,1,.346.65.9.9,0,0,1-.544.828,3.358,3.358,0,0,1-1.57.285,4.016,4.016,0,0,1-2.307-.574l.345-.406a4.21,4.21,0,0,0,1.961.483,2.8,2.8,0,0,0,1.057-.168c.239-.107.361-.254.361-.437,0-.213-.152-.361-.467-.422-.168-.031-.6-.076-1.326-.122a3.874,3.874,0,0,1-1.341-.229.681.681,0,0,1-.452-.666.827.827,0,0,1,.513-.752,3.144,3.144,0,0,1,1.448-.269,4.1,4.1,0,0,1,2.1.5Z" transform="translate(-244.414 -416.741)"/>
        <path id="パス_95" data-name="パス 95" d="M386.089,435.328h-1.854v2.881h-.65v-2.881H381.73v-.5h4.359v.5Z" transform="translate(-248.821 -416.834)"/>
        <path id="パス_96" data-name="パス 96" d="M395.729,438.209H391.67V434.83h3.907v.5h-3.272v.874h2.276v.5h-2.276v1h3.424v.513Z" transform="translate(-253.711 -416.835)"/>
        <path id="パス_97" data-name="パス 97" d="M405.965,438.209h-.752l-1.057-1.28H402.2v1.28h-.635V434.83h3.064a1.5,1.5,0,0,1,.965.285.977.977,0,0,1,.346.782.908.908,0,0,1-.284.7,1.215,1.215,0,0,1-.721.3Zm-1.448-1.8c.5,0,.737-.183.737-.528,0-.376-.269-.559-.8-.559H402.2v1.087Z" transform="translate(-258.577 -416.835)"/>
        <path id="パス_98" data-name="パス 98" d="M422.91,438.209h-.65V436.7H419.15v1.509h-.65V434.83h.65V436.2h3.109V434.83h.65Z" transform="translate(-266.91 -416.835)"/>
        <path id="パス_99" data-name="パス 99" d="M434.055,437.121a.991.991,0,0,1-.589.859,3.237,3.237,0,0,1-1.6.345,3.373,3.373,0,0,1-1.616-.345,1,1,0,0,1-.589-.859V434.83h.65v2.159a.659.659,0,0,0,.391.6,3.279,3.279,0,0,0,2.327,0,.67.67,0,0,0,.391-.6V434.83h.65v2.291Z" transform="translate(-272.4 -416.834)"/>
        <path id="パス_100" data-name="パス 100" d="M446.13,438.209h-.65V435.45h-.015l-2.022,2.2-2.007-2.2h-.015v2.759h-.65V434.83h.8l1.854,2.037,1.87-2.037h.8v3.379Z" transform="translate(-277.865 -416.835)"/>
        <path id="パス_101" data-name="パス 101" d="M457.548,438.209h-.711l-.452-.752h-2.611l-.452.752h-.711l2.053-3.379h.813Zm-1.463-1.255-1-1.646-1,1.646Z" transform="translate(-283.69 -416.835)"/>
        <path id="パス_102" data-name="パス 102" d="M468.095,438.209h-.8l-2.957-2.774v2.774h-.65V434.83h.8l2.957,2.774V434.83h.65Z" transform="translate(-289.141 -416.835)"/>
        <path id="パス_103" data-name="パス 103" d="M204.863,413.828a1.769,1.769,0,0,1-.981-.3l-13.077-9.47v8.236a1.422,1.422,0,1,1-2.835,0V401.009a1.462,1.462,0,0,1,.782-1.372,1.532,1.532,0,0,1,1.6.137l12.986,9.47v-8.236a1.57,1.57,0,0,1,3.14,0v11.284a1.543,1.543,0,0,1-.874,1.372A1.719,1.719,0,0,1,204.863,413.828Z" transform="translate(-153.503 -399.439)"/>
        <path id="パス_104" data-name="パス 104" d="M284.905,413.835a1.728,1.728,0,0,1-1.026-.33l-15.2-11.284a1.475,1.475,0,0,1-.269-2.159,1.741,1.741,0,0,1,2.322-.244l15.2,11.284a1.475,1.475,0,0,1,.269,2.159A1.727,1.727,0,0,1,284.905,413.835Z" transform="translate(-192.901 -399.446)"/>
        <path id="パス_105" data-name="パス 105" d="M269.695,413.817a1.689,1.689,0,0,1-1.3-.589,1.456,1.456,0,0,1,.269-2.159l15.2-11.284a1.742,1.742,0,0,1,2.322.239,1.456,1.456,0,0,1-.269,2.159l-15.2,11.3A1.7,1.7,0,0,1,269.695,413.817Z" transform="translate(-192.891 -399.429)"/>
        <path id="パス_106" data-name="パス 106" d="M325.355,402.6h-15.6a1.559,1.559,0,0,1,0-3.109h15.6a1.559,1.559,0,0,1,0,3.109Z" transform="translate(-212.703 -399.449)"/>
        <path id="パス_107" data-name="パス 107" d="M325,413.853a1.5,1.5,0,0,1-1.555-1.539V401.029a1.555,1.555,0,0,1,3.109,0v11.284A1.5,1.5,0,0,1,325,413.853Z" transform="translate(-220.151 -399.449)"/>
        <path id="パス_108" data-name="パス 108" d="M416.253,413.888a1.758,1.758,0,0,1-.965-.3l-12.879-9.47v8.236a1.539,1.539,0,0,1-3.079,0V401.069a1.614,1.614,0,0,1,2.55-1.235l12.864,9.47v-8.236a1.539,1.539,0,0,1,3.079,0v11.284a1.557,1.557,0,0,1-.859,1.372A1.494,1.494,0,0,1,416.253,413.888Z" transform="translate(-257.479 -399.469)"/>
        <path id="パス_109" data-name="パス 109" d="M456.455,402.719H440.918a1.557,1.557,0,0,1,0-3.109h15.536a1.557,1.557,0,0,1,0,3.109Z" transform="translate(-277.211 -399.508)"/>
        <path id="パス_110" data-name="パス 110" d="M456.454,419.257H441.1a1.625,1.625,0,0,1-1.631-1.509v-5.579a1.637,1.637,0,0,1,1.631-1.539h13.845a1.54,1.54,0,0,1,0,3.079H442.488v2.5h13.967a1.532,1.532,0,0,1,1.509,1.539A1.511,1.511,0,0,1,456.454,419.257Z" transform="translate(-277.226 -404.93)"/>
        <path id="パス_111" data-name="パス 111" d="M373.437,413.9h-9.968a4.258,4.258,0,0,1-4.329-4.044v-6.244a4.274,4.274,0,0,1,4.329-4.059h9.968a4.147,4.147,0,0,1,4.191,4.059v6.244A4.121,4.121,0,0,1,373.437,413.9Zm-9.968-11.492c-.874,0-1.494.483-1.494,1.194v6.244c0,.711.6,1.179,1.494,1.179h9.968c.874,0,1.631-.467,1.631-1.179V403.6c0-.711-.737-1.194-1.631-1.194Z" transform="translate(-237.708 -399.479)"/>
        <path id="パス_112" data-name="パス 112" d="M245.04,402.5l-15.552.076a1.549,1.549,0,0,1-.015-3.094l15.552-.076a1.549,1.549,0,0,1,.015,3.094Z" transform="translate(-173.2 -399.41)"/>
        <path id="パス_113" data-name="パス 113" d="M245.1,419.184l-15.338.061a1.641,1.641,0,0,1-1.646-1.524l-.015-5.639a1.663,1.663,0,0,1,1.631-1.57l13.829-.061a1.548,1.548,0,0,1,.015,3.094l-12.458.061.015,2.535,13.951-.061a1.553,1.553,0,0,1,.015,3.1Z" transform="translate(-173.245 -404.841)"/>
        <path id="パス_114" data-name="パス 114" d="M155.164,401.645V413.7h-19.2V401.645h19.2m1.555-1.555H134.41v15.155h22.309Z" transform="translate(-127.155 -399.744)"/>
        <path id="パス_115" data-name="パス 115" d="M156.67,403.15V415.2h-19.2V403.15h19.2" transform="translate(-128.66 -401.25)" fill="#fff"/>
        <path id="パス_116" data-name="パス 116" d="M140.869,412.379v12.051H121.685V412.379h19.184m1.555-1.539H120.13V426h22.294Z" transform="translate(-120.13 -405.033)"/>
        <path id="パス_117" data-name="パス 117" d="M142.374,413.87v12.066H123.19V413.87h19.184" transform="translate(-121.635 -406.523)"/>
      </g>
    </g>
  </g>
</svg>
