<svg xmlns="http://www.w3.org/2000/svg" width="359.752" height="42.781" viewBox="0 0 359.752 42.781">
  <g id="nextone-logo_color" transform="translate(-46 -431.6)">
    <path id="パス_118" data-name="パス 118" d="M284.976,551.891h-3.693v5.734h-1.291v-5.734H276.3V550.9h8.676Z" transform="translate(-161.16 -83.484)" fill="#2568a9"/>
    <path id="パス_119" data-name="パス 119" d="M316.137,553.773a3.058,3.058,0,0,1-1.561,2.672,6.012,6.012,0,0,1-3.392.9,6.184,6.184,0,0,1-3.422-.9,3.058,3.058,0,0,1-1.561-2.672,3.161,3.161,0,0,1,1.591-2.672,6.839,6.839,0,0,1,6.785,0A3.158,3.158,0,0,1,316.137,553.773Zm-1.351,0a2.267,2.267,0,0,0-1.141-1.921,4.476,4.476,0,0,0-2.462-.63,4.341,4.341,0,0,0-2.612.72,2.17,2.17,0,0,0-.03,3.663,4.373,4.373,0,0,0,2.642.691,4.438,4.438,0,0,0,2.642-.721A2.122,2.122,0,0,0,314.786,553.773Z" transform="translate(-182.083 -82.994)" fill="#2568a9"/>
    <path id="パス_120" data-name="パス 120" d="M378.428,557.625h-1.291v-5.494h-.03l-4.023,4.383-3.963-4.383h-.03v5.494H367.8V550.9h1.591l3.693,4.053,3.723-4.053H378.4v6.725Z" transform="translate(-225.19 -83.484)" fill="#2568a9"/>
    <path id="パス_121" data-name="パス 121" d="M417.417,557.625h-1.411l-.9-1.5h-5.194l-.9,1.5H407.6l4.083-6.725H413.3Zm-2.912-2.492-1.982-3.272-1.981,3.272Z" transform="translate(-253.041 -83.484)" fill="#2568a9"/>
    <path id="パス_122" data-name="パス 122" d="M453.777,557.625h-1.651l-3.693-3.543-2.342,1.5v2.042H444.8V550.9h1.291v3.482l5.4-3.482h1.861l-3.963,2.552Z" transform="translate(-279.073 -83.484)" fill="#2568a9"/>
    <path id="パス_123" data-name="パス 123" d="M487.106,557.625H479V550.9h7.806v.991h-6.515v1.741h4.533v.991h-4.533V556.6h6.815Z" transform="translate(-303.005 -83.484)" fill="#2568a9"/>
    <path id="パス_124" data-name="パス 124" d="M539.757,557.625h-1.411l-.9-1.5h-5.194l-.9,1.5H530l4.083-6.725H535.7Zm-2.912-2.492-1.981-3.272-1.981,3.272Z" transform="translate(-338.694 -83.484)" fill="#2568a9"/>
    <path id="パス_125" data-name="パス 125" d="M594.824,550.9a2.9,2.9,0,0,1,1.891.57,1.852,1.852,0,0,1,.69,1.531,1.8,1.8,0,0,1-.721,1.531,3.443,3.443,0,0,1-2.1.54h-4.593v2.552H588.7V550.9Zm-.24,3.152c.991,0,1.471-.36,1.471-1.051,0-.751-.51-1.111-1.561-1.111h-4.5v2.162Z" transform="translate(-379.771 -83.484)" fill="#2568a9"/>
    <path id="パス_126" data-name="パス 126" d="M630.676,557.625H622.6V550.9h7.776v.991h-6.515v1.741h4.533v.991h-4.533V556.6h6.815Z" transform="translate(-403.494 -83.484)" fill="#2568a9"/>
    <path id="パス_127" data-name="パス 127" d="M664.6,557.625h-1.5l-2.1-2.552h-3.9v2.552H655.8V550.9h6.094a2.932,2.932,0,0,1,1.921.57,1.872,1.872,0,0,1,.691,1.561,1.769,1.769,0,0,1-.57,1.381,2.434,2.434,0,0,1-1.441.6Zm-2.852-3.573c.991,0,1.471-.36,1.471-1.051,0-.751-.54-1.111-1.591-1.111h-4.5v2.162Z" transform="translate(-426.727 -83.484)" fill="#2568a9"/>
    <path id="パス_128" data-name="パス 128" d="M696.2,552.071a8.5,8.5,0,0,0-3.512-.75,5.53,5.53,0,0,0-1.8.24c-.42.15-.63.39-.63.66,0,.3.21.51.661.661a7.2,7.2,0,0,0,1.561.21c1.081.06,1.771.12,2.1.15a5.136,5.136,0,0,1,2.131.631,1.46,1.46,0,0,1,.691,1.291,1.8,1.8,0,0,1-1.081,1.651,6.735,6.735,0,0,1-3.122.57,7.982,7.982,0,0,1-4.593-1.141l.69-.811a8.342,8.342,0,0,0,3.9.961,5.592,5.592,0,0,0,2.1-.33c.48-.21.72-.51.72-.87,0-.421-.3-.721-.931-.841-.33-.06-1.2-.15-2.642-.24a7.846,7.846,0,0,1-2.672-.45,1.35,1.35,0,0,1-.9-1.321,1.648,1.648,0,0,1,1.021-1.5,6.312,6.312,0,0,1,2.882-.541,8.1,8.1,0,0,1,4.173.991Z" transform="translate(-449.68 -83.064)" fill="#2568a9"/>
    <path id="パス_129" data-name="パス 129" d="M732.537,553.773a3.058,3.058,0,0,1-1.561,2.672,6.012,6.012,0,0,1-3.392.9,6.184,6.184,0,0,1-3.422-.9,3.058,3.058,0,0,1-1.561-2.672,3.161,3.161,0,0,1,1.591-2.672,6.839,6.839,0,0,1,6.785,0A3.093,3.093,0,0,1,732.537,553.773Zm-1.321,0a2.267,2.267,0,0,0-1.141-1.921,4.476,4.476,0,0,0-2.462-.63,4.341,4.341,0,0,0-2.612.72,2.17,2.17,0,0,0-.03,3.663,4.374,4.374,0,0,0,2.642.691,4.437,4.437,0,0,0,2.642-.721A2.122,2.122,0,0,0,731.216,553.773Z" transform="translate(-473.472 -82.994)" fill="#2568a9"/>
    <path id="パス_130" data-name="パス 130" d="M771.766,557.625h-1.591l-5.884-5.524v5.524H763V550.9h1.591l5.884,5.524V550.9h1.291Z" transform="translate(-501.743 -83.484)" fill="#2568a9"/>
    <path id="パス_131" data-name="パス 131" d="M840.506,551.891h-6.515v1.741h4.533v.991h-4.533v3H832.7V550.9h7.776v.991Z" transform="translate(-550.518 -83.484)" fill="#2568a9"/>
    <path id="パス_132" data-name="パス 132" d="M869.837,553.773a3.058,3.058,0,0,1-1.561,2.672,6.012,6.012,0,0,1-3.392.9,6.184,6.184,0,0,1-3.422-.9,3.058,3.058,0,0,1-1.561-2.672,3.161,3.161,0,0,1,1.591-2.672,6.839,6.839,0,0,1,6.785,0A3.092,3.092,0,0,1,869.837,553.773Zm-1.321,0a2.267,2.267,0,0,0-1.141-1.921,4.476,4.476,0,0,0-2.462-.63,4.342,4.342,0,0,0-2.612.72,2.17,2.17,0,0,0-.03,3.663,4.373,4.373,0,0,0,2.642.691,4.438,4.438,0,0,0,2.642-.721A2.122,2.122,0,0,0,868.516,553.773Z" transform="translate(-569.552 -82.994)" fill="#2568a9"/>
    <path id="パス_133" data-name="パス 133" d="M904.6,552.071a8.5,8.5,0,0,0-3.513-.75,5.531,5.531,0,0,0-1.8.24c-.42.15-.63.39-.63.66,0,.3.21.51.661.661a7.193,7.193,0,0,0,1.561.21c1.081.06,1.771.12,2.1.15a5.137,5.137,0,0,1,2.132.631,1.46,1.46,0,0,1,.69,1.291,1.8,1.8,0,0,1-1.081,1.651,6.735,6.735,0,0,1-3.122.57A7.983,7.983,0,0,1,897,556.244l.69-.811a8.342,8.342,0,0,0,3.9.961,5.591,5.591,0,0,0,2.1-.33c.48-.21.721-.51.721-.87,0-.421-.3-.721-.931-.841-.33-.06-1.2-.15-2.642-.24a7.845,7.845,0,0,1-2.672-.45,1.35,1.35,0,0,1-.9-1.321,1.649,1.649,0,0,1,1.021-1.5,6.312,6.312,0,0,1,2.882-.541,8.1,8.1,0,0,1,4.173.991Z" transform="translate(-595.514 -83.064)" fill="#2568a9"/>
    <path id="パス_134" data-name="パス 134" d="M935.876,551.891h-3.693v5.734h-1.291v-5.734H927.2V550.9h8.676Z" transform="translate(-616.648 -83.484)" fill="#2568a9"/>
    <path id="パス_135" data-name="パス 135" d="M968.776,557.625H960.7V550.9h7.776v.991h-6.515v1.741h4.533v.991h-4.533V556.6h6.815Z" transform="translate(-640.09 -83.484)" fill="#2568a9"/>
    <path id="パス_136" data-name="パス 136" d="M1002.766,557.625h-1.5l-2.1-2.552h-3.9v2.552H994V550.9h6.094a2.932,2.932,0,0,1,1.921.57,1.96,1.96,0,0,1,.691,1.561,1.769,1.769,0,0,1-.571,1.381,2.434,2.434,0,0,1-1.441.6Zm-2.882-3.573c.991,0,1.471-.36,1.471-1.051,0-.751-.54-1.111-1.591-1.111h-4.5v2.162Z" transform="translate(-663.393 -83.484)" fill="#2568a9"/>
    <path id="パス_137" data-name="パス 137" d="M1059.866,557.625h-1.291v-3h-6.185v3H1051.1V550.9h1.291v2.732h6.185V550.9h1.291Z" transform="translate(-703.351 -83.484)" fill="#2568a9"/>
    <path id="パス_138" data-name="パス 138" d="M1097.436,555.463a1.972,1.972,0,0,1-1.171,1.711,6.5,6.5,0,0,1-3.182.691,6.62,6.62,0,0,1-3.212-.691,1.972,1.972,0,0,1-1.171-1.711V550.9h1.291v4.293a1.3,1.3,0,0,0,.78,1.2,6.566,6.566,0,0,0,4.623,0,1.327,1.327,0,0,0,.781-1.2V550.9h1.291v4.563Z" transform="translate(-729.662 -83.484)" fill="#2568a9"/>
    <path id="パス_139" data-name="パス 139" d="M1136.758,557.625h-1.291v-5.494h-.03l-4.023,4.383-3.993-4.383h-.031v5.494H1126.1V550.9h1.591l3.693,4.053,3.723-4.053h1.591v6.725Z" transform="translate(-755.834 -83.484)" fill="#2568a9"/>
    <path id="パス_140" data-name="パス 140" d="M1175.817,557.625h-1.411l-.9-1.5h-5.194l-.9,1.5H1166l4.083-6.725h1.621Zm-2.912-2.492-1.982-3.272-1.981,3.272Z" transform="translate(-783.755 -83.484)" fill="#2568a9"/>
    <path id="パス_141" data-name="パス 141" d="M1212.066,557.625h-1.591l-5.884-5.524v5.524H1203.3V550.9h1.591l5.884,5.524V550.9h1.291Z" transform="translate(-809.857 -83.484)" fill="#2568a9"/>
    <path id="パス_142" data-name="パス 142" d="M308.124,460.381a3.479,3.479,0,0,1-1.951-.6l-26.029-18.854v16.392a2.831,2.831,0,1,1-5.644,0V434.862a2.924,2.924,0,0,1,1.561-2.732,3.049,3.049,0,0,1,3.182.27l25.849,18.854V434.862a3.123,3.123,0,0,1,6.245,0v22.456a3.086,3.086,0,0,1-1.741,2.732A3.276,3.276,0,0,1,308.124,460.381Z" transform="translate(-159.9 -0.14)" fill="#2568a9"/>
    <path id="パス_143" data-name="パス 143" d="M577.817,460.433a3.384,3.384,0,0,1-2.041-.66l-30.262-22.456a2.936,2.936,0,0,1-.54-4.293,3.461,3.461,0,0,1,4.623-.48L579.858,455a2.936,2.936,0,0,1,.54,4.293A3.439,3.439,0,0,1,577.817,460.433Z" transform="translate(-348.684 -0.192)" fill="#2568a9"/>
    <path id="パス_144" data-name="パス 144" d="M547.5,460.363a3.365,3.365,0,0,1-2.582-1.171,2.891,2.891,0,0,1,.54-4.293l30.262-22.456a3.465,3.465,0,0,1,4.623.48,2.891,2.891,0,0,1-.54,4.293L549.545,459.7A3.384,3.384,0,0,1,547.5,460.363Z" transform="translate(-348.632 -0.122)" fill="#2568a9"/>
    <path id="パス_145" data-name="パス 145" d="M713.825,438.084H682.782a3.1,3.1,0,0,1,0-6.184h31.042a3.1,3.1,0,0,1,0,6.184Z" transform="translate(-443.592 -0.21)" fill="#2568a9"/>
    <path id="パス_146" data-name="パス 146" d="M733.992,460.481a2.989,2.989,0,0,1-3.092-3.062V434.962a3.092,3.092,0,0,1,6.185,0v22.456A2.972,2.972,0,0,1,733.992,460.481Z" transform="translate(-479.28 -0.21)" fill="#2568a9"/>
    <path id="パス_147" data-name="パス 147" d="M1020.184,460.581a3.456,3.456,0,0,1-1.921-.6l-25.639-18.854v16.392a3.062,3.062,0,1,1-6.124,0V435.062a3.214,3.214,0,0,1,5.074-2.462l25.609,18.854V435.062a3.062,3.062,0,1,1,6.124,0v22.456a3.112,3.112,0,0,1-1.711,2.732A2.874,2.874,0,0,1,1020.184,460.581Z" transform="translate(-658.145 -0.28)" fill="#2568a9"/>
    <path id="パス_148" data-name="パス 148" d="M1155.465,438.485h-30.923a3.1,3.1,0,0,1,0-6.185h30.923a3.1,3.1,0,0,1,0,6.185Z" transform="translate(-752.685 -0.49)" fill="#2568a9"/>
    <path id="パス_149" data-name="パス 149" d="M1155.5,486.572h-30.562a3.226,3.226,0,0,1-3.242-3V472.462a3.256,3.256,0,0,1,3.242-3.062h27.56a3.063,3.063,0,0,1,0,6.124h-24.8v4.984h27.8a3.044,3.044,0,0,1,3,3.062A3.011,3.011,0,0,1,1155.5,486.572Z" transform="translate(-752.755 -26.452)" fill="#2568a9"/>
    <path id="パス_150" data-name="パス 150" d="M879.561,460.651H859.716c-4.653,0-8.616-3.693-8.616-8.046V440.176c0-4.353,3.963-8.076,8.616-8.076h19.844a8.255,8.255,0,0,1,8.346,8.076V452.6A8.211,8.211,0,0,1,879.561,460.651Zm-19.844-22.877c-1.741,0-2.972.961-2.972,2.372v12.429c0,1.411,1.2,2.342,2.972,2.342h19.844c1.741,0,3.242-.931,3.242-2.342V440.146c0-1.411-1.471-2.372-3.242-2.372Z" transform="translate(-563.394 -0.35)" fill="#2568a9"/>
    <path id="パス_151" data-name="パス 151" d="M443.295,437.754l-30.953.15a3.081,3.081,0,0,1-.03-6.154l30.953-.15a3.081,3.081,0,0,1,.03,6.154Z" transform="translate(-254.301 0)" fill="#2568a9"/>
    <path id="パス_152" data-name="パス 152" d="M443.535,486.183,413,486.3a3.258,3.258,0,0,1-3.272-3.032l-.03-11.228a3.308,3.308,0,0,1,3.242-3.122l27.53-.12a3.079,3.079,0,0,1,.03,6.154l-24.8.12.03,5.044L443.5,480a3.094,3.094,0,0,1,.03,6.184Z" transform="translate(-254.511 -26.032)" fill="#2568a9"/>
    <path id="パス_153" data-name="パス 153" d="M135.41,436.992V460.98H97.192V436.992H135.41M138.5,433.9H94.1v30.172h44.4Z" transform="translate(-33.659 -1.609)" fill="#00406d"/>
    <path id="パス_154" data-name="パス 154" d="M142.618,444.2v23.987H104.4V444.2h38.218" transform="translate(-40.867 -8.817)" fill="#e4e14c"/>
    <path id="パス_155" data-name="パス 155" d="M87.28,473.162V497.15H49.092V473.162H87.28m3.092-3.062H46v30.172H90.372Z" transform="translate(0 -26.942)" fill="#00406d"/>
    <path id="パス_156" data-name="パス 156" d="M94.488,480.3v24.018H56.3V480.3H94.488" transform="translate(-7.208 -34.079)" fill="#2568a9"/>
  </g>
</svg>
