<svg xmlns="http://www.w3.org/2000/svg" width="176.336" height="82.5" viewBox="0 0 176.336 82.5">
  <g id="wssロゴ" transform="translate(-31.1 -228)">
    <path id="パス_181" data-name="パス 181" d="M43.987,621.5l-2.424,12.381H38.849l-.74-4.514c-.189-1.147-.348-2.424-.493-3.9h-.029c-.2,1.48-.377,2.729-.61,3.919l-.842,4.5H33.479L31.2,621.5h2.685l.639,4.833c.189,1.437.348,2.975.508,4.34h.029c.174-1.422.435-2.874.668-4.369l.8-4.8h2.438l.74,4.906c.218,1.422.392,2.758.537,4.253h.044c.145-1.495.319-2.888.523-4.34l.653-4.8h2.526Z" transform="translate(-0.085 -336.386)" fill="#fff"/>
    <path id="パス_182" data-name="パス 182" d="M149.048,652.354a6.741,6.741,0,0,1-2.671.493c-2.54,0-3.977-1.7-3.977-4.514,0-2.584,1.35-4.833,3.759-4.833,1.93,0,3.28,1.437,3.28,4.5a7.157,7.157,0,0,1-.073,1.19h-4.558c.058,1.074.914,1.568,1.959,1.568a5.8,5.8,0,0,0,1.945-.348Zm-1.9-5.109c0-.8-.232-1.814-1.1-1.814s-1.19,1.06-1.234,1.814Z" transform="translate(-95.145 -355.193)" fill="#fff"/>
    <path id="パス_183" data-name="パス 183" d="M227.127,622.833a2.374,2.374,0,0,1,2.061-1.132c1.8,0,2.874,1.9,2.874,4.485,0,3.237-1.553,4.891-3.251,4.891a2.13,2.13,0,0,1-2.018-1.321h-.029l-.131,1.132H224.5c.029-.711.058-1.756.058-2.758V618h2.526v4.833Zm-.044,4.47c0,1.016.581,1.524,1.118,1.524.842,0,1.321-.885,1.321-2.482,0-1.408-.435-2.38-1.321-2.38-.566,0-1.118.566-1.118,1.539Z" transform="translate(-165.329 -333.394)" fill="#fff"/>
    <path id="パス_184" data-name="パス 184" d="M316.167,623.345a4.048,4.048,0,0,0-1.959-.508c-.973,0-1.451.523-1.451,1.132,0,.682.464,1.031,1.814,1.713a3.878,3.878,0,0,1,2.5,3.643c0,2.264-1.539,3.861-4.224,3.861a5.908,5.908,0,0,1-2.743-.639l.435-2.366a5.272,5.272,0,0,0,2.409.639c1.06,0,1.582-.508,1.582-1.248s-.508-1.176-1.655-1.742c-1.756-.9-2.656-2.119-2.656-3.585a3.655,3.655,0,0,1,4.006-3.745,5.036,5.036,0,0,1,2.409.552Z" transform="translate(-238.505 -335.531)" fill="#fff"/>
    <path id="パス_185" data-name="パス 185" d="M388.6,628.684l2.5-.784v2.438h1.684v2.032H391.1v3.4c0,1.06.3,1.437.9,1.437a1.737,1.737,0,0,0,.653-.087l.015,2.177a4.937,4.937,0,0,1-1.553.2c-2.482,0-2.525-2.366-2.525-3.4v-3.745H387.6v-2.032h.987v-1.64Z" transform="translate(-304.756 -341.857)" fill="#fff"/>
    <path id="パス_186" data-name="パス 186" d="M463.469,650.64c0,1.1.044,2.1.073,2.9h-2.177l-.116-1.118H461.2a2.59,2.59,0,0,1-2.25,1.292c-1.64,0-2.555-1.234-2.555-3.832v-5.37h2.526v4.964c0,1.219.3,1.916,1,1.916.523,0,1.016-.45,1.016-1.364V644.5h2.526Z" transform="translate(-363.57 -356.047)" fill="#fff"/>
    <path id="パス_187" data-name="パス 187" d="M546.69,627.96c0,.987.029,2.032.058,2.758h-2.206l-.116-1.176h-.044a2.4,2.4,0,0,1-2.119,1.35c-1.858,0-3.063-1.989-3.063-4.645,0-3.063,1.495-4.732,3.179-4.732a1.889,1.889,0,0,1,1.756.929h.044V617.8H546.7v10.16Zm-2.526-2.569c0-1.248-.653-1.611-1.089-1.611-.914,0-1.335,1.118-1.335,2.482,0,1.553.552,2.366,1.321,2.366.479,0,1.1-.334,1.1-1.568Z" transform="translate(-434.352 -333.223)" fill="#fff"/>
    <path id="パス_188" data-name="パス 188" d="M629.707,644.7l-1.771,6.415c-.827,2.772-1.51,4.3-2.38,5.283a4.294,4.294,0,0,1-2.25,1.335l-.624-2.409a2.975,2.975,0,0,0,2.047-1.945,1.156,1.156,0,0,0-.1-.406L622,644.7h2.772l.943,4.427c.116.508.232,1.089.3,1.568h.044c.087-.479.174-1.06.261-1.553l.769-4.441Z" transform="translate(-505.134 -356.218)" fill="#fff"/>
    <path id="パス_189" data-name="パス 189" d="M710.767,623.345a4.048,4.048,0,0,0-1.959-.508c-.972,0-1.451.523-1.451,1.132,0,.682.464,1.031,1.814,1.713a3.878,3.878,0,0,1,2.5,3.643c0,2.264-1.539,3.861-4.224,3.861a5.908,5.908,0,0,1-2.743-.639l.435-2.366a5.272,5.272,0,0,0,2.409.639c1.06,0,1.582-.508,1.582-1.248s-.508-1.176-1.655-1.742c-1.756-.9-2.656-2.119-2.656-3.585a3.655,3.655,0,0,1,4.006-3.745,5.037,5.037,0,0,1,2.409.552Z" transform="translate(-575.831 -335.531)" fill="#fff"/>
    <path id="パス_190" data-name="パス 190" d="M789.222,650.469a13,13,0,0,0,.131,2.134h-2.264l-.145-.871H786.9a2.4,2.4,0,0,1-2.076,1.045A2.539,2.539,0,0,1,782.4,650c0-2.38,1.916-3.411,4.3-3.425,0-.682-.276-1.19-1.292-1.19a3.625,3.625,0,0,0-1.988.61l-.464-1.829a5.807,5.807,0,0,1,2.961-.769c2.671,0,3.324,1.887,3.324,3.89v3.179Zm-2.453-2.119c-1.045,0-1.945.334-1.945,1.379,0,.74.406,1.06.842,1.06a1.145,1.145,0,0,0,1.089-1.263v-1.176Z" transform="translate(-642.253 -355.107)" fill="#fff"/>
    <path id="パス_191" data-name="パス 191" d="M867.937,644.721a2.513,2.513,0,0,1,2.235-1.321c1.785,0,3,1.916,3,4.616,0,3.295-1.655,4.761-3.237,4.761a1.985,1.985,0,0,1-1.727-.914h-.044v4.325h-2.511v-9.623c0-1.118-.029-2.119-.058-2.975h2.177l.131,1.132Zm.247,4.267c0,.914.464,1.582,1.1,1.582.885,0,1.335-1.045,1.335-2.453,0-1.51-.464-2.438-1.306-2.438-.6,0-1.132.6-1.132,1.553Z" transform="translate(-713.377 -355.107)" fill="#fff"/>
    <path id="パス_192" data-name="パス 192" d="M953.751,644.721a2.513,2.513,0,0,1,2.235-1.321c1.785,0,3,1.916,3,4.616,0,3.295-1.655,4.761-3.237,4.761a1.985,1.985,0,0,1-1.727-.914h-.044v4.325h-2.526v-9.623c0-1.118-.029-2.119-.058-2.975h2.177l.131,1.132Zm.232,4.267c0,.914.464,1.582,1.1,1.582.885,0,1.335-1.045,1.335-2.453,0-1.51-.464-2.438-1.306-2.438-.6,0-1.132.6-1.132,1.553Z" transform="translate(-786.724 -355.107)" fill="#fff"/>
    <path id="パス_193" data-name="パス 193" d="M1042.362,648.13c0,3.512-2.018,4.746-3.788,4.746-2.235,0-3.774-1.727-3.774-4.63,0-3.033,1.64-4.746,3.861-4.746C1040.969,643.5,1042.362,645.416,1042.362,648.13Zm-3.759-2.584c-.943,0-1.248,1.379-1.248,2.627,0,1.509.392,2.642,1.248,2.642.813,0,1.2-1.2,1.2-2.642C1039.807,646.838,1039.474,645.547,1038.6,645.547Z" transform="translate(-858.019 -355.193)" fill="#fff"/>
    <path id="パス_194" data-name="パス 194" d="M1125.675,646.072a2.528,2.528,0,0,0-.624-.058,1.449,1.449,0,0,0-1.466,1.132,2.782,2.782,0,0,0-.1.842V652.5h-2.526v-6.111c0-1.19-.029-2.1-.058-2.917h2.163l.1,1.51h.058a2.183,2.183,0,0,1,1.916-1.684,2.658,2.658,0,0,1,.537.044Z" transform="translate(-931.622 -355.022)" fill="#fff"/>
    <path id="パス_195" data-name="パス 195" d="M1190.662,648.13c0,3.512-2.017,4.746-3.788,4.746-2.235,0-3.774-1.727-3.774-4.63,0-3.033,1.64-4.746,3.861-4.746C1189.269,643.5,1190.662,645.416,1190.662,648.13Zm-3.759-2.584c-.943,0-1.248,1.379-1.248,2.627,0,1.509.392,2.642,1.248,2.642.813,0,1.2-1.2,1.2-2.642C1188.108,646.838,1187.759,645.547,1186.9,645.547Z" transform="translate(-984.794 -355.193)" fill="#fff"/>
    <g id="グループ_36" data-name="グループ 36" transform="translate(31.1 305.884)">
      <path id="パス_196" data-name="パス 196" d="M34.932,765.714l-.9,3.4h-.363l-.421-1.814c-.1-.45-.174-.784-.218-1.132h-.015a9.194,9.194,0,0,1-.261,1.118l-.479,1.829h-.363l-.813-3.4h.377l.406,1.771c.1.435.189.842.247,1.176h.015c.044-.348.16-.74.261-1.19l.45-1.771h.363l.406,1.756c.087.406.189.813.232,1.19h.015c.058-.392.16-.769.261-1.19l.45-1.756h.348Z" transform="translate(-31.1 -765.54)" fill="#fff"/>
      <path id="パス_197" data-name="パス 197" d="M65.329,774.309a1.586,1.586,0,0,1-.74.145,1.1,1.1,0,0,1-1.089-1.234c0-.769.406-1.321,1.045-1.321.726,0,.9.682.9,1.118a.831.831,0,0,1-.015.2H63.863c0,.682.377.929.8.929a1.269,1.269,0,0,0,.61-.131Zm-.218-1.35c0-.334-.131-.755-.6-.755-.435,0-.624.421-.653.755Z" transform="translate(-58.797 -770.84)" fill="#fff"/>
      <path id="パス_198" data-name="パス 198" d="M96.913,773.83a3.7,3.7,0,0,0,.029.581h-.319l-.029-.319h-.015a.811.811,0,0,1-.7.363.658.658,0,0,1-.682-.7c0-.581.493-.9,1.364-.9,0-.2,0-.668-.537-.668a.967.967,0,0,0-.566.174l-.087-.261a1.279,1.279,0,0,1,.711-.2c.668,0,.827.494.827.972Zm-.348-.682c-.45,0-1,.073-1,.581a.394.394,0,0,0,.406.45.583.583,0,0,0,.6-.566Z" transform="translate(-85.896 -770.84)" fill="#fff"/>
      <path id="パス_199" data-name="パス 199" d="M117.189,772.377c-.044,0-.073-.014-.131-.014-.392,0-.581.392-.581.813V774.5h-.363v-1.713c0-.261,0-.494-.015-.726h.319l.015.464h.015a.7.7,0,0,1,.639-.523c.044,0,.073.015.1.015Z" transform="translate(-103.763 -770.926)" fill="#fff"/>
      <path id="パス_200" data-name="パス 200" d="M131.529,774.309a1.586,1.586,0,0,1-.74.145,1.1,1.1,0,0,1-1.089-1.234c0-.769.406-1.321,1.045-1.321.726,0,.9.682.9,1.118a.831.831,0,0,1-.015.2h-1.6c0,.682.377.929.8.929a1.269,1.269,0,0,0,.61-.131Zm-.232-1.35c0-.334-.131-.755-.6-.755-.435,0-.624.421-.653.755Z" transform="translate(-115.389 -770.84)" fill="#fff"/>
      <path id="パス_201" data-name="パス 201" d="M163.027,773.83a3.7,3.7,0,0,0,.029.581h-.334l-.029-.319h-.014a.811.811,0,0,1-.7.363.658.658,0,0,1-.682-.7c0-.581.493-.9,1.364-.9,0-.2,0-.668-.537-.668a.967.967,0,0,0-.566.174l-.087-.261a1.279,1.279,0,0,1,.711-.2c.668,0,.827.494.827.972v.958Zm-.348-.682c-.45,0-1,.073-1,.581a.394.394,0,0,0,.406.45.583.583,0,0,0,.6-.566Z" transform="translate(-142.402 -770.84)" fill="#fff"/>
      <path id="パス_202" data-name="パス 202" d="M193.948,772.435a.819.819,0,0,0-.45-.145.351.351,0,0,0-.392.363c0,.2.131.3.435.435.377.16.6.363.6.726a.732.732,0,0,1-.827.726,1.306,1.306,0,0,1-.61-.16l.1-.29a1.165,1.165,0,0,0,.523.16c.319,0,.464-.174.464-.392s-.131-.348-.435-.479c-.392-.16-.6-.392-.6-.682a.708.708,0,0,1,.769-.7,1.122,1.122,0,0,1,.537.145Z" transform="translate(-169.245 -770.926)" fill="#fff"/>
      <path id="パス_203" data-name="パス 203" d="M211.256,774.409a1.365,1.365,0,0,1-.639.145,1.121,1.121,0,0,1-1.118-1.248A1.2,1.2,0,0,1,210.7,772a1.337,1.337,0,0,1,.566.131l-.087.3a.9.9,0,0,0-.479-.131.867.867,0,0,0-.827.972c0,.6.334.958.813.958a1.307,1.307,0,0,0,.508-.116Z" transform="translate(-183.606 -770.926)" fill="#fff"/>
      <path id="パス_204" data-name="パス 204" d="M231.287,768.171h-.363v-1.437c0-.392-.131-.74-.537-.74a.651.651,0,0,0-.624.682v1.495H229.4V764.6h.363v1.509h.015a.874.874,0,0,1,.726-.435c.29,0,.784.189.784,1.016Z" transform="translate(-200.618 -764.6)" fill="#fff"/>
      <path id="パス_205" data-name="パス 205" d="M252.563,773.263a1.14,1.14,0,0,1-1.1,1.292c-.6,0-1.06-.464-1.06-1.263A1.142,1.142,0,0,1,251.5,772C252.142,772,252.563,772.508,252.563,773.263Zm-1.074-.972c-.508,0-.711.522-.711.987,0,.537.29.972.711.972s.726-.435.726-.987C252.2,772.842,252,772.29,251.489,772.29Z" transform="translate(-218.57 -770.926)" fill="#fff"/>
      <path id="パス_206" data-name="パス 206" d="M274.463,773.263a1.14,1.14,0,0,1-1.1,1.292c-.6,0-1.06-.464-1.06-1.263A1.142,1.142,0,0,1,273.4,772,1.117,1.117,0,0,1,274.463,773.263Zm-1.089-.972c-.508,0-.711.522-.711.987,0,.537.29.972.711.972s.726-.435.726-.987C274.1,772.842,273.9,772.29,273.374,772.29Z" transform="translate(-237.291 -770.926)" fill="#fff"/>
      <path id="パス_207" data-name="パス 207" d="M295.663,768.171H295.3V764.6h.363Z" transform="translate(-256.953 -764.6)" fill="#fff"/>
      <path id="パス_208" data-name="パス 208" d="M318.663,772.564a.846.846,0,0,1,.8-.464c.552,0,.958.494.958,1.248,0,.9-.508,1.306-1.016,1.306a.8.8,0,0,1-.711-.392h-.015V775.6h-.363v-2.656c0-.319-.015-.566-.015-.784h.319l.044.406Zm.015,1.045a.67.67,0,0,0,.653.726c.464,0,.711-.406.711-.987,0-.508-.247-.958-.7-.958a.733.733,0,0,0-.668.755Z" transform="translate(-276.615 -771.011)" fill="#fff"/>
      <path id="パス_209" data-name="パス 209" d="M341.989,772.377c-.044,0-.073-.014-.131-.014-.392,0-.581.392-.581.813V774.5h-.363v-1.713c0-.261,0-.494-.015-.726h.319l.015.464h.015a.7.7,0,0,1,.639-.523c.044,0,.073.015.1.015Z" transform="translate(-295.934 -770.926)" fill="#fff"/>
      <path id="パス_210" data-name="パス 210" d="M356.663,773.263a1.14,1.14,0,0,1-1.1,1.292c-.6,0-1.06-.464-1.06-1.263A1.142,1.142,0,0,1,355.6,772C356.242,772,356.663,772.508,356.663,773.263Zm-1.074-.972c-.508,0-.711.522-.711.987,0,.537.29.972.711.972s.726-.435.726-.987C356.3,772.842,356.1,772.29,355.589,772.29Z" transform="translate(-307.56 -770.926)" fill="#fff"/>
      <path id="パス_211" data-name="パス 211" d="M377.69,772.4l-.885,2.438h-.334L375.6,772.4h.377l.464,1.422c.073.218.131.421.189.624h.015c.058-.2.116-.406.189-.624l.464-1.408h.392Z" transform="translate(-325.598 -771.268)" fill="#fff"/>
      <path id="パス_212" data-name="パス 212" d="M397.032,766.508a.246.246,0,0,1-.232-.261.233.233,0,1,1,.464,0A.237.237,0,0,1,397.032,766.508Zm.174,2.859h-.363v-2.438h.363Z" transform="translate(-343.721 -765.797)" fill="#fff"/>
      <path id="パス_213" data-name="パス 213" d="M409.861,767.575c0,.2.014.435.014.61h-.319l-.014-.421h-.015a.814.814,0,0,1-.769.464c-.537,0-.958-.493-.958-1.234,0-.827.464-1.306,1.016-1.306a.73.73,0,0,1,.682.377h.015V764.6h.363v2.975Zm-.363-.871a.659.659,0,0,0-.639-.726c-.435,0-.711.435-.711.987,0,.508.232.958.7.958a.68.68,0,0,0,.639-.74V766.7Z" transform="translate(-353.124 -764.6)" fill="#fff"/>
      <path id="パス_214" data-name="パス 214" d="M431.132,766.508a.246.246,0,0,1-.232-.261.233.233,0,1,1,.464,0A.23.23,0,0,1,431.132,766.508Zm.189,2.859h-.363v-2.438h.363Z" transform="translate(-372.871 -765.797)" fill="#fff"/>
      <path id="パス_215" data-name="パス 215" d="M444.8,774.582h-.363v-1.437c0-.392-.131-.74-.552-.74a.646.646,0,0,0-.61.7V774.6h-.363v-1.814c0-.247-.014-.435-.014-.624h.319l.015.392h.015a.847.847,0,0,1,.755-.45c.29,0,.8.189.8,1.016Z" transform="translate(-383.13 -771.011)" fill="#fff"/>
      <path id="パス_216" data-name="パス 216" d="M466.076,772.058c-.015.174-.015.377-.015.668v1.422c0,.421-.014,1.393-1.118,1.393a1.472,1.472,0,0,1-.74-.189l.1-.29a1.291,1.291,0,0,0,.653.189c.435,0,.74-.232.74-.885v-.29h-.015a.779.779,0,0,1-.726.421c-.566,0-.958-.508-.958-1.2,0-.842.508-1.292,1.016-1.292a.74.74,0,0,1,.711.421h.015l.014-.363ZM465.7,773a.648.648,0,0,0-.624-.7c-.406,0-.7.377-.7.972,0,.523.247.929.7.929a.651.651,0,0,0,.624-.711Z" transform="translate(-401.167 -770.926)" fill="#fff"/>
      <path id="パス_217" data-name="パス 217" d="M498.963,772.564a.846.846,0,0,1,.8-.464c.552,0,.958.494.958,1.248,0,.9-.508,1.306-1.016,1.306a.8.8,0,0,1-.711-.392h-.014V775.6h-.363v-2.656c0-.319-.014-.566-.014-.784h.319l.044.406Zm.029,1.045a.67.67,0,0,0,.653.726c.464,0,.711-.406.711-.987,0-.508-.247-.958-.7-.958a.733.733,0,0,0-.668.755Z" transform="translate(-430.745 -771.011)" fill="#fff"/>
      <path id="パス_218" data-name="パス 218" d="M522.289,772.377c-.044,0-.073-.014-.131-.014-.392,0-.581.392-.581.813V774.5h-.363v-1.713c0-.261,0-.494-.015-.726h.319l.014.464h.015a.7.7,0,0,1,.639-.523c.044,0,.073.015.1.015Z" transform="translate(-450.065 -770.926)" fill="#fff"/>
      <path id="パス_219" data-name="パス 219" d="M536.427,773.83a3.706,3.706,0,0,0,.029.581h-.334l-.029-.319h-.015a.811.811,0,0,1-.7.363.658.658,0,0,1-.682-.7c0-.581.494-.9,1.364-.9,0-.2,0-.668-.537-.668a.967.967,0,0,0-.566.174l-.087-.261a1.278,1.278,0,0,1,.711-.2c.668,0,.827.494.827.972v.958Zm-.348-.682c-.45,0-1,.073-1,.581a.394.394,0,0,0,.406.45.583.583,0,0,0,.6-.566Z" transform="translate(-461.605 -770.84)" fill="#fff"/>
      <path id="パス_220" data-name="パス 220" d="M556.356,774.409a1.365,1.365,0,0,1-.639.145,1.121,1.121,0,0,1-1.118-1.248A1.2,1.2,0,0,1,555.8,772a1.337,1.337,0,0,1,.566.131l-.087.3a.9.9,0,0,0-.479-.131.867.867,0,0,0-.827.972c0,.6.334.958.813.958a1.307,1.307,0,0,0,.508-.116Z" transform="translate(-478.617 -770.926)" fill="#fff"/>
      <path id="パス_221" data-name="パス 221" d="M573.063,768.631l.348-.131v.566h.609v.29h-.609v1.408c0,.3.087.479.319.479a1.151,1.151,0,0,0,.247-.029l.015.29a1.012,1.012,0,0,1-.348.058c-.566,0-.581-.537-.581-.8v-1.393H572.7v-.29h.363Z" transform="translate(-494.09 -767.934)" fill="#fff"/>
      <path id="パス_222" data-name="パス 222" d="M589.332,766.508a.246.246,0,0,1-.232-.261.233.233,0,1,1,.464,0A.237.237,0,0,1,589.332,766.508Zm.174,2.859h-.363v-2.438h.363Z" transform="translate(-508.109 -765.797)" fill="#fff"/>
      <path id="パス_223" data-name="パス 223" d="M601.756,774.409a1.366,1.366,0,0,1-.639.145A1.121,1.121,0,0,1,600,773.306,1.2,1.2,0,0,1,601.2,772a1.338,1.338,0,0,1,.566.131l-.087.3a.9.9,0,0,0-.479-.131.867.867,0,0,0-.827.972c0,.6.334.958.813.958a1.307,1.307,0,0,0,.508-.116Z" transform="translate(-517.427 -770.926)" fill="#fff"/>
      <path id="パス_224" data-name="パス 224" d="M620.427,773.83a3.7,3.7,0,0,0,.029.581h-.334l-.029-.319h-.015a.811.811,0,0,1-.7.363.658.658,0,0,1-.682-.7c0-.581.493-.9,1.364-.9,0-.2,0-.668-.537-.668a.967.967,0,0,0-.566.174l-.087-.261a1.278,1.278,0,0,1,.711-.2c.668,0,.827.494.827.972v.958Zm-.348-.682c-.45,0-1,.073-1,.581a.394.394,0,0,0,.406.45.583.583,0,0,0,.6-.566Z" transform="translate(-533.413 -770.84)" fill="#fff"/>
      <path id="パス_225" data-name="パス 225" d="M640.063,768.171H639.7V764.6h.363Z" transform="translate(-551.365 -764.6)" fill="#fff"/>
      <path id="パス_226" data-name="パス 226" d="M662.99,772.4l-.885,2.438h-.334L660.9,772.4h.377l.464,1.422c.073.218.131.421.189.624h.015c.058-.2.116-.406.189-.624l.464-1.408h.392Z" transform="translate(-569.488 -771.268)" fill="#fff"/>
      <path id="パス_227" data-name="パス 227" d="M683.463,773.263a1.14,1.14,0,0,1-1.1,1.292c-.6,0-1.06-.464-1.06-1.263A1.142,1.142,0,0,1,682.4,772C683.042,772,683.463,772.508,683.463,773.263Zm-1.074-.972c-.508,0-.711.522-.711.987,0,.537.29.972.711.972s.726-.435.726-.987C683.1,772.842,682.9,772.29,682.389,772.29Z" transform="translate(-586.927 -770.926)" fill="#fff"/>
      <path id="パス_228" data-name="パス 228" d="M704.956,774.409a1.365,1.365,0,0,1-.639.145,1.121,1.121,0,0,1-1.118-1.248A1.2,1.2,0,0,1,704.4,772a1.337,1.337,0,0,1,.566.131l-.087.3a.9.9,0,0,0-.479-.131.867.867,0,0,0-.827.972c0,.6.334.958.813.958a1.307,1.307,0,0,0,.508-.116Z" transform="translate(-605.648 -770.926)" fill="#fff"/>
      <path id="パス_229" data-name="パス 229" d="M723.527,773.83a3.7,3.7,0,0,0,.029.581h-.334l-.029-.319h-.014a.811.811,0,0,1-.7.363.658.658,0,0,1-.682-.7c0-.581.494-.9,1.364-.9,0-.2,0-.668-.537-.668a.968.968,0,0,0-.566.174l-.087-.261a1.278,1.278,0,0,1,.711-.2c.668,0,.827.494.827.972v.958Zm-.348-.682c-.45,0-1,.073-1,.581a.394.394,0,0,0,.406.45.583.583,0,0,0,.6-.566Z" transform="translate(-621.549 -770.84)" fill="#fff"/>
      <path id="パス_230" data-name="パス 230" d="M741.548,768.631l.348-.131v.566h.61v.29h-.61v1.408c0,.3.087.479.319.479a1.15,1.15,0,0,0,.247-.029l.029.29a1.012,1.012,0,0,1-.348.058c-.566,0-.581-.537-.581-.8v-1.393H741.2v-.29h.363v-.45Z" transform="translate(-638.133 -767.934)" fill="#fff"/>
      <path id="パス_231" data-name="パス 231" d="M757.632,766.508a.246.246,0,0,1-.232-.261.233.233,0,1,1,.464,0A.223.223,0,0,1,757.632,766.508Zm.189,2.859h-.363v-2.438h.363Z" transform="translate(-651.982 -765.797)" fill="#fff"/>
      <path id="パス_232" data-name="パス 232" d="M770.563,773.263a1.14,1.14,0,0,1-1.1,1.292c-.6,0-1.06-.464-1.06-1.263A1.142,1.142,0,0,1,769.5,772C770.142,772,770.563,772.508,770.563,773.263Zm-1.074-.972c-.508,0-.711.522-.711.987,0,.537.29.972.711.972s.726-.435.726-.987C770.2,772.842,770,772.29,769.489,772.29Z" transform="translate(-661.385 -770.926)" fill="#fff"/>
      <path id="パス_233" data-name="パス 233" d="M793.2,774.582h-.363v-1.437c0-.392-.131-.74-.552-.74a.646.646,0,0,0-.61.7V774.6h-.363v-1.814c0-.247-.014-.435-.014-.624h.319l.029.392h.014a.847.847,0,0,1,.755-.45c.29,0,.784.189.784,1.016Z" transform="translate(-680.961 -771.011)" fill="#fff"/>
      <path id="パス_234" data-name="パス 234" d="M814.027,773.83a3.7,3.7,0,0,0,.029.581h-.334l-.029-.319h-.015a.811.811,0,0,1-.7.363.658.658,0,0,1-.682-.7c0-.581.494-.9,1.364-.9,0-.2,0-.668-.537-.668a.968.968,0,0,0-.566.174l-.087-.261a1.279,1.279,0,0,1,.711-.2c.668,0,.827.494.827.972v.958Zm-.363-.682c-.435,0-1,.073-1,.581a.394.394,0,0,0,.406.45.583.583,0,0,0,.6-.566Z" transform="translate(-698.913 -770.84)" fill="#fff"/>
      <path id="パス_235" data-name="パス 235" d="M833.663,768.171H833.3V764.6h.363Z" transform="translate(-716.865 -764.6)" fill="#fff"/>
      <path id="パス_236" data-name="パス 236" d="M856.913,773.83a3.706,3.706,0,0,0,.029.581h-.319l-.029-.319h-.015a.811.811,0,0,1-.7.363.658.658,0,0,1-.682-.7c0-.581.494-.9,1.364-.9,0-.2,0-.668-.537-.668a.968.968,0,0,0-.566.174l-.087-.261a1.279,1.279,0,0,1,.711-.2c.668,0,.827.494.827.972Zm-.348-.682c-.435,0-1,.073-1,.581a.394.394,0,0,0,.406.45.583.583,0,0,0,.6-.566Z" transform="translate(-735.586 -770.84)" fill="#fff"/>
      <path id="パス_237" data-name="パス 237" d="M877.9,774.582h-.363v-1.437c0-.392-.131-.74-.552-.74a.646.646,0,0,0-.61.7V774.6h-.363v-1.814c0-.247-.015-.435-.015-.624h.319l.029.392h.015a.847.847,0,0,1,.755-.45c.29,0,.784.189.784,1.016v1.466Z" transform="translate(-753.368 -771.011)" fill="#fff"/>
      <path id="パス_238" data-name="パス 238" d="M899.261,767.575c0,.2.014.435.014.61h-.319l-.015-.421h-.014a.814.814,0,0,1-.769.464c-.537,0-.958-.493-.958-1.234,0-.827.464-1.306,1.016-1.306a.73.73,0,0,1,.682.377h.015V764.6h.363v2.975Zm-.363-.871a.659.659,0,0,0-.639-.726c-.435,0-.711.435-.711.987,0,.508.232.958.7.958a.68.68,0,0,0,.639-.74V766.7Z" transform="translate(-771.49 -764.6)" fill="#fff"/>
      <path id="パス_239" data-name="パス 239" d="M930.463,768.631l.348-.131v.566h.61v.29h-.61v1.408c0,.3.087.479.319.479a1.151,1.151,0,0,0,.247-.029l.015.29a1.011,1.011,0,0,1-.348.058c-.566,0-.581-.537-.581-.8v-1.393H930.1v-.29h.363Z" transform="translate(-799.615 -767.934)" fill="#fff"/>
      <path id="パス_240" data-name="パス 240" d="M947.629,774.309a1.586,1.586,0,0,1-.74.145,1.1,1.1,0,0,1-1.089-1.234c0-.769.406-1.321,1.045-1.321.726,0,.9.682.9,1.118a.827.827,0,0,1-.015.2h-1.6c0,.682.377.929.8.929a1.269,1.269,0,0,0,.61-.131Zm-.232-1.35c0-.334-.131-.755-.6-.755-.435,0-.624.421-.653.755Z" transform="translate(-813.036 -770.84)" fill="#fff"/>
      <path id="パス_241" data-name="パス 241" d="M967.856,774.409a1.365,1.365,0,0,1-.639.145,1.121,1.121,0,0,1-1.118-1.248A1.2,1.2,0,0,1,967.3,772a1.337,1.337,0,0,1,.566.131l-.087.3a.9.9,0,0,0-.479-.131.867.867,0,0,0-.827.972c0,.6.334.958.813.958a1.307,1.307,0,0,0,.508-.116Z" transform="translate(-830.39 -770.926)" fill="#fff"/>
      <path id="パス_242" data-name="パス 242" d="M987.887,768.171h-.363v-1.437c0-.392-.131-.74-.537-.74a.651.651,0,0,0-.624.682v1.495H986V764.6h.363v1.509h.014a.874.874,0,0,1,.726-.435c.29,0,.784.189.784,1.016Z" transform="translate(-847.402 -764.6)" fill="#fff"/>
      <path id="パス_243" data-name="パス 243" d="M1009.9,774.582h-.363v-1.437c0-.392-.131-.74-.552-.74a.646.646,0,0,0-.61.7V774.6h-.363v-1.814c0-.247-.015-.435-.015-.624h.319l.029.392h.014a.847.847,0,0,1,.755-.45c.29,0,.784.189.784,1.016v1.466Z" transform="translate(-866.208 -771.011)" fill="#fff"/>
      <path id="パス_244" data-name="パス 244" d="M1030.132,766.508a.246.246,0,0,1-.232-.261.233.233,0,1,1,.464,0A.223.223,0,0,1,1030.132,766.508Zm.189,2.859h-.363v-2.438h.363Z" transform="translate(-884.93 -765.797)" fill="#fff"/>
      <path id="パス_245" data-name="パス 245" d="M1042.656,774.409a1.365,1.365,0,0,1-.639.145,1.121,1.121,0,0,1-1.118-1.248,1.2,1.2,0,0,1,1.2-1.306,1.337,1.337,0,0,1,.566.131l-.087.3a.9.9,0,0,0-.479-.131.867.867,0,0,0-.827.972c0,.6.334.958.813.958a1.307,1.307,0,0,0,.508-.116Z" transform="translate(-894.333 -770.926)" fill="#fff"/>
      <path id="パス_246" data-name="パス 246" d="M1061.227,773.83a3.714,3.714,0,0,0,.029.581h-.334l-.029-.319h-.015a.811.811,0,0,1-.7.363.658.658,0,0,1-.682-.7c0-.581.494-.9,1.364-.9,0-.2,0-.668-.537-.668a.968.968,0,0,0-.566.174l-.087-.261a1.278,1.278,0,0,1,.711-.2c.668,0,.827.494.827.972v.958Zm-.349-.682c-.435,0-1,.073-1,.581a.394.394,0,0,0,.406.45.583.583,0,0,0,.595-.566Z" transform="translate(-910.234 -770.84)" fill="#fff"/>
      <path id="パス_247" data-name="パス 247" d="M1080.963,768.171h-.363V764.6h.363Z" transform="translate(-928.271 -764.6)" fill="#fff"/>
      <path id="パス_248" data-name="パス 248" d="M1102.263,768.631l.348-.131v.566h.61v.29h-.61v1.408c0,.3.087.479.319.479a1.15,1.15,0,0,0,.247-.029l.015.29a1.012,1.012,0,0,1-.348.058c-.566,0-.581-.537-.581-.8v-1.393h-.363v-.29h.363Z" transform="translate(-946.479 -767.934)" fill="#fff"/>
      <path id="パス_249" data-name="パス 249" d="M1119.589,772.377c-.044,0-.073-.014-.131-.014-.392,0-.58.392-.58.813V774.5h-.363v-1.713c0-.261,0-.494-.015-.726h.319l.015.464h.015a.7.7,0,0,1,.639-.523c.044,0,.073.015.1.015Z" transform="translate(-960.67 -770.926)" fill="#fff"/>
      <path id="パス_250" data-name="パス 250" d="M1133.727,773.83a3.714,3.714,0,0,0,.029.581h-.334l-.029-.319h-.015a.811.811,0,0,1-.7.363.658.658,0,0,1-.682-.7c0-.581.493-.9,1.364-.9,0-.2,0-.668-.537-.668a.968.968,0,0,0-.566.174l-.087-.261a1.278,1.278,0,0,1,.711-.2c.668,0,.827.494.827.972v.958Zm-.348-.682c-.435,0-1,.073-1,.581a.394.394,0,0,0,.406.45.583.583,0,0,0,.6-.566Z" transform="translate(-972.211 -770.84)" fill="#fff"/>
      <path id="パス_251" data-name="パス 251" d="M1152.932,766.508a.246.246,0,0,1-.232-.261.233.233,0,1,1,.464,0A.23.23,0,0,1,1152.932,766.508Zm.189,2.859h-.363v-2.438h.363Z" transform="translate(-989.906 -765.797)" fill="#fff"/>
      <path id="パス_252" data-name="パス 252" d="M1166.6,774.582h-.363v-1.437c0-.392-.131-.74-.552-.74a.646.646,0,0,0-.61.7V774.6h-.363v-1.814c0-.247-.015-.435-.015-.624h.319l.029.392h.015a.847.847,0,0,1,.755-.45c.29,0,.784.189.784,1.016Z" transform="translate(-1000.164 -771.011)" fill="#fff"/>
      <path id="パス_253" data-name="パス 253" d="M1186.832,766.508a.246.246,0,0,1-.232-.261.233.233,0,1,1,.464,0A.23.23,0,0,1,1186.832,766.508Zm.174,2.859h-.363v-2.438h.363Z" transform="translate(-1018.886 -765.797)" fill="#fff"/>
      <path id="パス_254" data-name="パス 254" d="M1200.5,774.582h-.363v-1.437c0-.392-.131-.74-.552-.74a.646.646,0,0,0-.61.7V774.6h-.363v-1.814c0-.247-.015-.435-.015-.624h.319l.015.392h.014a.847.847,0,0,1,.755-.45c.29,0,.784.189.784,1.016v1.466Z" transform="translate(-1029.144 -771.011)" fill="#fff"/>
      <path id="パス_255" data-name="パス 255" d="M1221.776,772.058c-.014.174-.014.377-.014.668v1.422c0,.421-.015,1.393-1.118,1.393a1.472,1.472,0,0,1-.74-.189l.1-.29a1.292,1.292,0,0,0,.653.189c.435,0,.74-.232.74-.885v-.29h-.014a.779.779,0,0,1-.726.421c-.566,0-.958-.508-.958-1.2,0-.842.508-1.292,1.016-1.292a.739.739,0,0,1,.711.421h.015l.014-.363Zm-.377.943a.648.648,0,0,0-.624-.7c-.406,0-.7.377-.7.972,0,.523.247.929.7.929a.65.65,0,0,0,.624-.711Z" transform="translate(-1047.181 -770.926)" fill="#fff"/>
      <path id="パス_256" data-name="パス 256" d="M1242.5,785.89a.256.256,0,1,1,.508,0,.255.255,0,0,1-.261.276C1242.587,786.181,1242.5,786.05,1242.5,785.89Z" transform="translate(-1066.672 -782.552)" fill="#fff"/>
    </g>
    <g id="グループ_39" data-name="グループ 39" transform="translate(31.107 228)">
      <path id="パス_257" data-name="パス 257" d="M749.337,327.881l-20.1-20.117a.871.871,0,0,0-1.379.029l-4.862,4.862a1.105,1.105,0,0,0,.043,1.19l15.618,15.618.363.363-13.3,13.3a.66.66,0,0,0-.145.755c.116.319.494.377.726.377l9.8.058a2.372,2.372,0,0,0,1.364-.653l11.8-11.8C749.729,331.278,751.282,329.841,749.337,327.881Z" transform="translate(-622.445 -295.906)" fill="#fff"/>
      <path id="パス_258" data-name="パス 258" d="M551.681,246.93l20.1,20.1a.871.871,0,0,0,1.379-.029l4.862-4.862a1.106,1.106,0,0,0-.044-1.19l-15.6-15.6-.363-.363,13.3-13.3a.66.66,0,0,0,.145-.755c-.116-.319-.493-.377-.726-.377l-9.8-.058a2.372,2.372,0,0,0-1.364.653l-11.8,11.8C551.289,243.519,549.736,244.956,551.681,246.93Z" transform="translate(-475.313 -230.137)" fill="#fff"/>
      <path id="パス_259" data-name="パス 259" d="M1083.337,327.967l-20.1-20.1a.871.871,0,0,0-1.379.029l-4.862,4.862a1.106,1.106,0,0,0,.044,1.19l15.618,15.618.363.363-13.3,13.3a.66.66,0,0,0-.145.755c.116.319.493.377.726.377l9.8.058a2.372,2.372,0,0,0,1.364-.653l11.8-11.8C1083.729,331.363,1085.282,329.926,1083.337,327.967Z" transform="translate(-907.966 -295.992)" fill="#fff"/>
      <path id="パス_260" data-name="パス 260" d="M885.677,246.93l20.1,20.1a.871.871,0,0,0,1.379-.029l4.862-4.862a1.106,1.106,0,0,0-.044-1.19l-15.618-15.6-.363-.363,13.3-13.3a.66.66,0,0,0,.145-.755c-.116-.319-.494-.377-.726-.377l-9.8-.058a2.372,2.372,0,0,0-1.364.653l-11.8,11.8C885.285,243.519,883.732,244.956,885.677,246.93Z" transform="translate(-760.831 -230.137)" fill="#fff"/>
      <g id="グループ_38" data-name="グループ 38" transform="translate(25.85 0)">
        <g id="グループ_37" data-name="グループ 37">
          <path id="パス_261" data-name="パス 261" d="M219.344,250.744l4.79-10.363-5.486-11.873c-.1-.2-.377-.508-.61-.508h-8.114c-.392.029-.523.131-.61.377a.828.828,0,0,0,.058.755Z" transform="translate(-209.249 -228)" fill="#fff"/>
          <path id="パス_262" data-name="パス 262" d="M344.516,228.377c-.1-.247-.218-.348-.61-.377h-8.128c-.232,0-.508.3-.61.508l-14.427,31.235-4.151-9-4.79,10.363,6.72,14.558a1.2,1.2,0,0,0,1.1.711h2.235a1.2,1.2,0,0,0,1.1-.711l21.5-46.548A.8.8,0,0,0,344.516,228.377Z" transform="translate(-296.915 -228)" fill="#fff"/>
        </g>
      </g>
      <path id="パス_263" data-name="パス 263" d="M78.749,228.377c-.1-.247-.218-.348-.61-.377H70.026c-.232,0-.508.3-.61.508L54.989,259.743,40.561,228.508c-.1-.2-.377-.508-.61-.508H31.824c-.392.029-.523.131-.61.377a.828.828,0,0,0,.058.755l21.5,46.548a1.2,1.2,0,0,0,1.1.711h2.235a1.2,1.2,0,0,0,1.1-.711l21.5-46.548A.87.87,0,0,0,78.749,228.377Z" transform="translate(-31.149 -228)" fill="#fff"/>
    </g>
  </g>
</svg>
